<svg xmlns="http://www.w3.org/2000/svg" xmlns:xlink="http://www.w3.org/1999/xlink" width="500" zoomAndPan="magnify" viewBox="0 0 375 374.999991" height="500" preserveAspectRatio="xMidYMid meet" version="1.0"><defs><g/></defs><g fill="#ff4a17" fill-opacity="1"><g transform="translate(31.659789, 201.477052)"><g><path d="M 11.347656 -12.167969 L 11.347656 0 L 18.726562 0 L 18.726562 -12.210938 L 29.558594 -29.429688 L 29.558594 -30.207031 L 21.402344 -30.207031 L 18.640625 -25.761719 L 15.058594 -19.203125 L 11.652344 -25.375 L 8.628906 -30.207031 L 0.519531 -30.207031 L 0.519531 -29.515625 Z M 11.347656 -12.167969 "/></g></g></g><g fill="#ffffff" fill-opacity="1"><g transform="translate(61.889784, 201.477052)"><g><path d="M 25.070312 -11.652344 C 25.070312 -19.980469 18.859375 -24.121094 12.644531 -24.121094 C 6.386719 -24.121094 0.171875 -19.980469 0.171875 -11.652344 C 0.171875 -3.367188 6.429688 0.777344 12.644531 0.777344 C 18.859375 0.777344 25.070312 -3.367188 25.070312 -11.652344 Z M 6.992188 -11.652344 C 6.992188 -15.621094 9.796875 -17.605469 12.644531 -17.605469 C 15.75 -17.605469 18.253906 -15.621094 18.253906 -11.652344 C 18.253906 -7.722656 15.449219 -5.78125 12.644531 -5.78125 C 9.796875 -5.78125 6.992188 -7.722656 6.992188 -11.652344 Z M 6.992188 -11.652344 "/></g></g></g><g fill="#ffffff" fill-opacity="1"><g transform="translate(89.203461, 201.477052)"><g><path d="M 16.183594 -2.375 L 16.183594 0 L 23.042969 0 L 23.042969 -23.34375 L 15.835938 -23.34375 L 15.835938 -10.660156 C 15.835938 -7.550781 13.722656 -5.824219 11.695312 -5.824219 C 9.839844 -5.824219 8.027344 -7.292969 8.027344 -10.527344 L 8.027344 -23.34375 L 1.164062 -23.34375 L 1.164062 -10.484375 C 1.121094 -4.617188 2.976562 0.300781 9.839844 0.300781 C 12.253906 0.300781 14.585938 -0.34375 16.183594 -2.375 Z M 16.183594 -2.375 "/></g></g></g><g fill="#ffffff" fill-opacity="1"><g transform="translate(115.265786, 201.477052)"><g><path d="M 7.679688 -21.792969 L 7.421875 -23.34375 L 1.292969 -23.34375 L 1.292969 0 L 8.070312 0 L 8.070312 -12.945312 C 8.070312 -16.097656 10.574219 -17.390625 13.03125 -17.433594 C 13.808594 -17.433594 14.628906 -17.304688 15.320312 -17.089844 L 15.40625 -23.476562 C 14.5 -23.691406 13.59375 -23.820312 12.773438 -23.820312 C 10.875 -23.820312 9.191406 -23.214844 7.679688 -21.792969 Z M 7.679688 -21.792969 "/></g></g></g><g fill="#ff4a17" fill-opacity="1"><g transform="translate(132.947515, 201.477052)"><g><path d="M 14.371094 -30.464844 L 2.15625 -30.464844 L 2.15625 0 L 9.535156 0 L 9.535156 -8.976562 L 14.371094 -8.976562 C 21.445312 -8.976562 24.984375 -14.371094 24.984375 -19.675781 C 24.984375 -24.984375 21.445312 -30.464844 14.371094 -30.464844 Z M 14.371094 -15.921875 L 9.535156 -15.921875 L 9.535156 -23.300781 L 14.371094 -23.300781 C 16.65625 -23.300781 17.777344 -21.359375 17.777344 -19.546875 C 17.777344 -17.777344 16.65625 -15.921875 14.371094 -15.921875 Z M 14.371094 -15.921875 "/></g></g></g><g fill="#ffffff" fill-opacity="1"><g transform="translate(159.246462, 201.477052)"><g><path d="M 7.679688 -21.792969 L 7.421875 -23.34375 L 1.292969 -23.34375 L 1.292969 0 L 8.070312 0 L 8.070312 -12.945312 C 8.070312 -16.097656 10.574219 -17.390625 13.03125 -17.433594 C 13.808594 -17.433594 14.628906 -17.304688 15.320312 -17.089844 L 15.40625 -23.476562 C 14.5 -23.691406 13.59375 -23.820312 12.773438 -23.820312 C 10.875 -23.820312 9.191406 -23.214844 7.679688 -21.792969 Z M 7.679688 -21.792969 "/></g></g></g><g fill="#ffffff" fill-opacity="1"><g transform="translate(176.937775, 201.477052)"><g><path d="M 25.070312 -11.652344 C 25.070312 -19.980469 18.859375 -24.121094 12.644531 -24.121094 C 6.386719 -24.121094 0.171875 -19.980469 0.171875 -11.652344 C 0.171875 -3.367188 6.429688 0.777344 12.644531 0.777344 C 18.859375 0.777344 25.070312 -3.367188 25.070312 -11.652344 Z M 6.992188 -11.652344 C 6.992188 -15.621094 9.796875 -17.605469 12.644531 -17.605469 C 15.75 -17.605469 18.253906 -15.621094 18.253906 -11.652344 C 18.253906 -7.722656 15.449219 -5.78125 12.644531 -5.78125 C 9.796875 -5.78125 6.992188 -7.722656 6.992188 -11.652344 Z M 6.992188 -11.652344 "/></g></g></g><g fill="#ffffff" fill-opacity="1"><g transform="translate(204.251452, 201.477052)"><g><path d="M 1.035156 -28.394531 C 1.035156 -25.71875 3.0625 -24.511719 5.136719 -24.511719 C 7.121094 -24.511719 9.148438 -25.71875 9.148438 -28.394531 C 9.148438 -31.070312 7.078125 -32.40625 5.09375 -32.40625 C 3.0625 -32.40625 1.035156 -31.070312 1.035156 -28.394531 Z M 1.683594 0.863281 L 1.683594 -23.34375 L 8.457031 -23.34375 L 8.457031 0.992188 C 8.457031 6.90625 4.617188 9.621094 -0.34375 9.621094 C -1.382812 9.621094 -2.417969 9.492188 -3.539062 9.277344 L -3.28125 3.667969 C -2.804688 3.796875 -2.285156 3.839844 -1.769531 3.839844 C 0.0429688 3.839844 1.683594 3.0625 1.683594 0.863281 Z M 1.683594 0.863281 "/></g></g></g><g fill="#ffffff" fill-opacity="1"><g transform="translate(215.729224, 201.477052)"><g><path d="M 24.683594 -11.738281 C 24.683594 -19.71875 18.640625 -23.691406 12.644531 -23.691406 C 6.558594 -23.691406 0.5625 -19.71875 0.5625 -11.738281 C 0.5625 -3.753906 6.558594 0.257812 12.601562 0.257812 C 17.433594 0.257812 22.222656 -2.285156 23.992188 -7.378906 L 16.613281 -7.378906 C 15.621094 -6.300781 14.195312 -5.78125 12.6875 -5.78125 C 10.617188 -5.824219 8.5 -6.90625 7.679688 -9.0625 L 24.425781 -9.0625 C 24.597656 -9.925781 24.683594 -10.789062 24.683594 -11.738281 Z M 17.261719 -14.371094 L 7.941406 -14.371094 C 8.628906 -16.65625 10.484375 -17.777344 12.515625 -17.777344 C 14.714844 -17.777344 16.613281 -16.699219 17.261719 -14.371094 Z M 17.261719 -14.371094 "/></g></g></g><g fill="#ffffff" fill-opacity="1"><g transform="translate(243.344941, 201.477052)"><g><path d="M 24.078125 -9.925781 L 17.347656 -9.925781 C 16.570312 -7.335938 14.457031 -6.128906 12.382812 -6.128906 C 9.796875 -6.128906 7.207031 -8.027344 7.207031 -11.695312 C 7.207031 -15.363281 9.796875 -17.261719 12.382812 -17.261719 C 14.457031 -17.261719 16.570312 -16.007812 17.347656 -13.421875 L 24.078125 -13.421875 C 23.171875 -20.28125 17.777344 -23.648438 12.382812 -23.648438 C 6.472656 -23.648438 0.5625 -19.589844 0.5625 -11.695312 C 0.5625 -3.796875 6.472656 0.257812 12.382812 0.257812 C 17.777344 0.257812 23.171875 -3.105469 24.078125 -9.925781 Z M 24.078125 -9.925781 "/></g></g></g><g fill="#ffffff" fill-opacity="1"><g transform="translate(269.838775, 201.477052)"><g><path d="M 15.535156 0.0429688 L 15.320312 -5.566406 C 14.714844 -5.4375 14.023438 -5.351562 13.378906 -5.351562 C 11.738281 -5.351562 10.226562 -6 10.226562 -8.070312 L 10.226562 -17.261719 L 15.101562 -17.261719 L 15.101562 -23.085938 L 10.226562 -23.085938 L 10.226562 -28.136719 L 3.453125 -27.53125 L 3.453125 -23.085938 L 0.386719 -23.085938 L 0.386719 -17.261719 L 3.453125 -17.261719 L 3.453125 -8.070312 C 3.453125 -2.027344 6.558594 0.386719 11.695312 0.386719 C 12.859375 0.386719 14.152344 0.257812 15.535156 0.0429688 Z M 15.535156 0.0429688 "/></g></g></g><g fill="#ff4a17" fill-opacity="1"><g transform="translate(287.72969, 201.477052)"><g><path d="M 3.710938 -7.550781 C 1.554688 -7.550781 -0.171875 -6 -0.171875 -3.710938 C -0.171875 -1.8125 1.554688 0.128906 3.710938 0.128906 C 6.042969 0.128906 7.722656 -1.8125 7.722656 -3.710938 C 7.722656 -6 6.042969 -7.550781 3.710938 -7.550781 Z M 3.710938 -7.550781 "/></g></g></g><g fill="#ffffff" fill-opacity="1"><g transform="translate(298.120532, 201.477052)"><g><path d="M 11.910156 -23.734375 C 4.316406 -23.734375 0.605469 -18.382812 0.605469 -11.996094 C 0.605469 -5.566406 4.445312 0.300781 11.824219 0.300781 C 14.066406 0.300781 16.355469 -0.34375 17.953125 -2.332031 L 17.953125 0 L 24.726562 0 L 24.726562 -23.34375 L 17.953125 -23.34375 L 17.953125 -20.929688 C 16.441406 -22.871094 14.195312 -23.734375 11.910156 -23.734375 Z M 12.644531 -6.214844 C 9.191406 -6.214844 7.421875 -9.019531 7.421875 -11.824219 C 7.421875 -14.671875 9.148438 -17.476562 12.644531 -17.476562 C 15.578125 -17.476562 17.953125 -14.929688 17.953125 -11.824219 C 17.953125 -8.714844 15.578125 -6.214844 12.644531 -6.214844 Z M 12.644531 -6.214844 "/></g></g></g><g fill="#ffffff" fill-opacity="1"><g transform="translate(325.865694, 201.477052)"><g><path d="M 0.949219 -28.480469 C 0.949219 -25.933594 3.019531 -24.683594 5.09375 -24.683594 C 7.078125 -24.683594 9.105469 -25.933594 9.105469 -28.480469 C 9.105469 -31.15625 7.035156 -32.449219 4.960938 -32.449219 C 2.976562 -32.449219 0.949219 -31.113281 0.949219 -28.480469 Z M 1.597656 -23.34375 L 8.5 -23.34375 L 8.5 0 L 1.597656 0 Z M 1.597656 -23.34375 "/></g></g></g></svg>
